<?xml version="1.0" encoding="UTF-8"?>
<svg id="Layer_2" data-name="Layer 2" xmlns="http://www.w3.org/2000/svg" viewBox="0 0 105.17 122.75">
  <defs>
    <style>
      .cls-1 {
        fill-rule: evenodd;
      }
    </style>
  </defs>
  <g id="Layer_1-2" data-name="Layer 1">
    <path class="cls-1" d="m11.18,37.16h83.48c.67-.03,1.34.03,2,.16,1.09.24,2.09.78,2.88,1.56.92.89,1.5,2.07,1.64,3.34.03.48,0,.96-.06,1.44l-7.11,73.65h0v.41h0c-.05.3-.11.6-.2.9h0v.06h0c-.77,2.38-2.97,4.01-5.47,4.07H17.33c-.42-.02-.84-.08-1.25-.19-.4-.12-.79-.28-1.16-.48h0c-1.77-1.02-2.92-2.84-3.08-4.88L4.84,43.71c-.08-.55-.1-1.11-.06-1.66.14-1.25.72-2.42,1.63-3.29.83-.8,1.87-1.35,3-1.58.59-.1,1.19-.15,1.79-.13l-.02.11ZM5.66,8.8h31.47v-2.8h0c0-.09,0-.18,0-.27.06-1.51.69-2.94,1.76-4h0c1.12-1.11,2.63-1.73,4.21-1.73h19.67c3.2.16,5.7,2.8,5.7,6h0v2.8h32.39c2.34.19,4.18,2.08,4.31,4.43v10.36c0,1.43-1.16,2.59-2.59,2.59H2.6c-1.42,0-2.57-1.14-2.59-2.56v-10.09H0c-.01-.1-.01-.21,0-.31H0c.14-2.17,1.74-3.96,3.88-4.34.59-.08,1.18-.1,1.77-.08Zm42.1,52.7c.27-2.62,2.61-4.53,5.23-4.26,2.25.23,4.03,2.01,4.26,4.26v37c-.27,2.62-2.61,4.53-5.23,4.26-2.25-.23-4.03-2.01-4.26-4.26v-37Zm23.73-.2c.27-2.49,2.5-4.31,5-4.06,2.47-.02,4.49,1.96,4.51,4.43,0,.01,0,.02,0,.03l-2,37c-.27,2.5-2.5,4.31-5,4.06-2.47.02-4.49-1.96-4.51-4.43,0-.01,0-.02,0-.03,0,0,2-37,2-37Zm-46.48.4c0-2.46,2-4.46,4.46-4.46.01,0,.03,0,.04,0,2.5-.25,4.73,1.57,5,4.06l2,37c0,2.47-2.01,4.47-4.48,4.46-.01,0-.02,0-.03,0-2.5.25-4.73-1.56-5-4.06l-2-37h.01Z"/>
  </g>
</svg>