<svg width="20" height="20" viewBox="0 0 20 20" fill="none" xmlns="http://www.w3.org/2000/svg">
<path d="M6 20C5.45 20 4.979 19.804 4.587 19.412C4.195 19.02 3.99933 18.5493 4 18C4 17.45 4.196 16.979 4.588 16.587C4.98 16.195 5.45067 15.9993 6 16C6.55 16 7.021 16.196 7.413 16.588C7.805 16.98 8.00067 17.4507 8 18C8 18.55 7.804 19.021 7.412 19.413C7.02 19.805 6.54933 20.0007 6 20ZM16 20C15.45 20 14.979 19.804 14.587 19.412C14.195 19.02 13.9993 18.5493 14 18C14 17.45 14.196 16.979 14.588 16.587C14.98 16.195 15.4507 15.9993 16 16C16.55 16 17.021 16.196 17.413 16.588C17.805 16.98 18.0007 17.4507 18 18C18 18.55 17.804 19.021 17.412 19.413C17.02 19.805 16.5493 20.0007 16 20ZM4.2 2H18.95C19.3333 2 19.625 2.171 19.825 2.513C20.025 2.855 20.0333 3.20067 19.85 3.55L16.3 9.95C16.1167 10.2833 15.8707 10.5417 15.562 10.725C15.2533 10.9083 14.916 11 14.55 11H7.1L6 13H18V15H6C5.25 15 4.68333 14.6707 4.3 14.012C3.91667 13.3533 3.9 12.6993 4.25 12.05L5.6 9.6L2 2H0V0H3.25L4.2 2Z" fill="#252526"/>
</svg>
