<svg width="47" height="47" viewBox="0 0 47 47" fill="none" xmlns="http://www.w3.org/2000/svg">
<path d="M44.3333 9.33655H32.6667V5.43988C32.6119 3.94613 31.9671 2.53502 30.8737 1.5159C29.7802 0.496777 28.3272 -0.0471998 26.8333 0.00321636H19.8333C18.3394 -0.0471998 16.8865 0.496777 15.793 1.5159C14.6995 2.53502 14.0547 3.94613 14 5.43988V9.33655H2.33333C1.71449 9.33655 1.121 9.58238 0.683417 10.02C0.245833 10.4576 0 11.051 0 11.6699C0 12.2887 0.245833 12.8822 0.683417 13.3198C1.121 13.7574 1.71449 14.0032 2.33333 14.0032H4.66667V39.6699C4.66667 41.5264 5.40417 43.3069 6.71692 44.6196C8.02967 45.9324 9.81015 46.6699 11.6667 46.6699H35C36.8565 46.6699 38.637 45.9324 39.9498 44.6196C41.2625 43.3069 42 41.5264 42 39.6699V14.0032H44.3333C44.9522 14.0032 45.5457 13.7574 45.9833 13.3198C46.4208 12.8822 46.6667 12.2887 46.6667 11.6699C46.6667 11.051 46.4208 10.4576 45.9833 10.02C45.5457 9.58238 44.9522 9.33655 44.3333 9.33655ZM18.6667 5.43988C18.6667 5.06655 19.1567 4.66988 19.8333 4.66988H26.8333C27.51 4.66988 28 5.06655 28 5.43988V9.33655H18.6667V5.43988ZM37.3333 39.6699C37.3333 40.2887 37.0875 40.8822 36.6499 41.3198C36.2123 41.7574 35.6188 42.0032 35 42.0032H11.6667C11.0478 42.0032 10.4543 41.7574 10.0168 41.3198C9.57917 40.8822 9.33333 40.2887 9.33333 39.6699V14.0032H37.3333V39.6699Z" fill="#252526"/>
<path d="M16.3333 35.0032C16.9522 35.0032 17.5457 34.7574 17.9832 34.3198C18.4208 33.8822 18.6667 33.2887 18.6667 32.6699V23.3365C18.6667 22.7177 18.4208 22.1242 17.9832 21.6866C17.5457 21.249 16.9522 21.0032 16.3333 21.0032C15.7145 21.0032 15.121 21.249 14.6834 21.6866C14.2458 22.1242 14 22.7177 14 23.3365V32.6699C14 33.2887 14.2458 33.8822 14.6834 34.3198C15.121 34.7574 15.7145 35.0032 16.3333 35.0032Z" fill="#252526"/>
<path d="M30.3333 35.0032C30.9522 35.0032 31.5457 34.7574 31.9832 34.3198C32.4208 33.8822 32.6667 33.2887 32.6667 32.6699V23.3365C32.6667 22.7177 32.4208 22.1242 31.9832 21.6866C31.5457 21.249 30.9522 21.0032 30.3333 21.0032C29.7145 21.0032 29.121 21.249 28.6834 21.6866C28.2458 22.1242 28 22.7177 28 23.3365V32.6699C28 33.2887 28.2458 33.8822 28.6834 34.3198C29.121 34.7574 29.7145 35.0032 30.3333 35.0032Z" fill="#252526"/>
</svg>
